<svg xmlns="http://www.w3.org/2000/svg" width="24" height="24" fill="currentColor" viewBox="-5 -5 32 32"><path d="M18.544 2.446a1.373 1.373 0 0 0-.18-.702 1.452 1.452 0 0 0-.519-.527 1.55 1.55 0 0 0-1.463-.064 1.428 1.428 0 0 0-.513.44 7.156 7.156 0 0 0-4.501.98 6.64 6.64 0 0 0-2.846 3.47l-.756 2.165a18.088 18.088 0 0 1-4.543 7.015l-.912.863a.994.994 0 0 0-.27.435.959.959 0 0 0-.013.505c.04.167.126.321.246.448.121.126.274.22.445.275l9.193 2.966a1.564 1.564 0 0 0-.116.582c.007.404.164.793.443 1.096a1.81 1.81 0 0 0 1.08.562c.42.059.846-.026 1.205-.24.36-.213.627-.542.756-.927l3.642 1.163a1.096 1.096 0 0 0 1-.185c.136-.11.24-.25.304-.41a.96.96 0 0 0 .06-.498l-.179-1.213a17.27 17.27 0 0 1 .777-8.228l.756-2.165a6.306 6.306 0 0 0-.087-4.431 6.676 6.676 0 0 0-3.009-3.375Zm1.05 7.116-.746 2.134a19.194 19.194 0 0 0-.912 8.75l-12.94-4.08A19.91 19.91 0 0 0 9.814 8.84l.713-2.155a4.65 4.65 0 0 1 2.413-2.56 4.992 4.992 0 0 1 3.6-.224 4.73 4.73 0 0 1 2.74 2.24 4.388 4.388 0 0 1 .325 3.43l-.011-.01Z"/></svg>